<mxfile host="app.diagrams.net" modified="2023-03-26T14:30:11.605Z" agent="Mozilla/5.0 (Macintosh; Intel Mac OS X 10_15_7) AppleWebKit/537.36 (KHTML, like Gecko) Chrome/109.0.0.0 Safari/537.36" version="21.1.1" etag="GmwjrIqB44OmoA6ylhGU" type="github">
  <diagram name="第 1 页" id="U5SXK_HcBbD6EQvgE2GK">
    <mxGraphModel>
      <root>
        <mxCell id="0" />
        <mxCell id="1" parent="0" />
      </root>
    </mxGraphModel>
  </diagram>
</mxfile>
